<svg width="16" height="17" viewBox="0 0 16 17" fill="none" xmlns="http://www.w3.org/2000/svg">
<g id="Group 8.1">
<path id="Oval_26_" d="M8.05833 9.10833C9.98333 9.10833 11.6167 6.54167 11.6167 4.55833C11.6167 2.575 9.98333 1 8.05833 1C6.075 1 4.5 2.575 4.5 4.55833C4.5 6.54167 6.075 9.10833 8.05833 9.10833Z" stroke="url(#paint0_linear_8_1095)" stroke-linecap="round" stroke-linejoin="round"/>
<path id="Rectangle_26_" d="M9.75 8.5835L10.9167 10.3335C12.8417 10.3335 14.4167 11.9085 14.4167 13.8335L15 15.5835H1L1.58333 13.8335C1.58333 11.9085 3.15833 10.3335 5.08333 10.3335L6.25 8.5835" stroke="url(#paint1_linear_8_1095)" stroke-linecap="round" stroke-linejoin="round"/>
<path id="Path-3_6_" d="M5.08301 10.3335C7.00801 11.9085 8.99134 11.9085 10.9163 10.3335" stroke="url(#paint2_linear_8_1095)" stroke-linecap="round" stroke-linejoin="round"/>
</g>
<defs>
<linearGradient id="paint0_linear_8_1095" x1="8.41417" y1="-0.276312" x2="8.93521" y2="14.0831" gradientUnits="userSpaceOnUse">
<stop stop-color="#FD749B"/>
<stop offset="1" stop-color="#281AC8"/>
</linearGradient>
<linearGradient id="paint1_linear_8_1095" x1="8.7" y1="7.48164" x2="8.89761" y2="19.8914" gradientUnits="userSpaceOnUse">
<stop stop-color="#FD749B"/>
<stop offset="1" stop-color="#281AC8"/>
</linearGradient>
<linearGradient id="paint2_linear_8_1095" x1="8.29134" y1="10.1476" x2="8.30485" y2="12.2422" gradientUnits="userSpaceOnUse">
<stop stop-color="#FD749B"/>
<stop offset="1" stop-color="#281AC8"/>
</linearGradient>
</defs>
</svg>
